<svg version="1.1" xmlns="http://www.w3.org/2000/svg" xmlns:xlink="http://www.w3.org/1999/xlink" x="0px" y="0px" width="391.2px"
	 height="544.7px" viewBox="0 0 391.2 544.7" enable-background="new 0 0 391.2 544.7" xml:space="preserve">
	<polyline fill="none" stroke="#E84F1C" stroke-width="2" stroke-linejoin="bevel" stroke-miterlimit="10" points="267.8,150.3 
		263.5,156.1 255.2,154.6 245.7,156.1 240.4,148.8 230.9,152.5 215.3,134.1 218.4,146.5 204.6,134.3 205.5,143.3 191,132.8 
		191.1,141 176,130.3 175.4,139.1 163.3,132.2 165.3,140.4 156.1,136 158.1,143.3 149.3,142.1 144.6,174.6 161.5,171.8 174.2,161.1 
		193,156 204.2,156 212.3,159.9 221.6,170 218.1,174.6 212.1,168.9 200.5,162.8 183,164.7 172.4,172.5 181.1,177.9 190.8,177.9 
		209.7,173.5 211.5,170.8 212,173.9 214.2,173.1 215,174.4 	"/>
	<polyline fill="none" stroke="#E84F1C" stroke-width="2" stroke-linejoin="bevel" stroke-miterlimit="10" points="184.6,164.5 
		182.7,168.8 183.8,172.3 186.4,175 191.5,177 196.1,176.6 199.7,174.3 201.4,170.3 200.5,166.6 197.7,163.1 192.6,163.6 
		189.9,163.9 188.2,167 188.8,170 191.3,171.8 194.5,171.1 195.7,168.9 194.9,165.9 191.5,164.2 187.2,164.2 	"/>
	<polyline fill="none" stroke="#E84F1C" stroke-width="2" stroke-linejoin="bevel" stroke-miterlimit="10" points="268.2,177 
		270.3,163.1 283.4,150.2 297,140.5 293.5,149.2 308.6,142.8 307.5,150 321.8,145.2 319.7,150.2 328.2,149.4 324.9,154.1 
		334.8,153.2 331.3,159.3 334.9,160.6 335.2,176.2 324.6,174.7 321.1,167.8 309.6,163.1 298.2,161.4 285.8,163.1 275.8,170 
		276.7,173.9 278,177 279.6,172.6 281,171.4 284.2,168.8 285.9,168.2 287.5,167.7 294.3,165.4 304.2,165.4 312.7,167.8 318.6,171.6 
		321.5,177.9 313.5,180.9 308,180.9 296.1,178.4 289.2,177 281.8,177 282.4,173.2 284.2,170 289.2,168.6 288.7,171.1 289.3,173.2 
		289.8,174.8 291.9,177 298.1,177.9 302.6,177 305.6,174.5 306,171.5 305.5,168 302.3,166.2 298.2,166.6 296.4,166 294.2,168.9 
		293.9,172.2 296.7,174.1 299.7,171.9 300.4,170 299.5,167.7 	"/>
	<path fill="none" stroke="#E84F1C" stroke-width="2" stroke-linejoin="bevel" stroke-miterlimit="10" d="M292.3,195.6l-12.5-6.9
		L268.2,177l1.9,12.8l15.8,16.3l23.6,6.9l18.7-10.6l8.7-12.3l-0.1-8l-1.6-5.9l-0.1-6.2l3-16l1.5-13.6l1.3-5.5l-3.3-6.9l1.5-10
		L336,99.8l-6.2-11.2h3.9l-2.3-8.9L323,61.9l-9.2-18.1l-11.3-5.2l-9.7-14.6l-17.9-6.3l-9.6-7.2H257l-3.1,3.2l-2.9-3.2l-20.5-9.2
		l-9.7,4l-4.1-4L202.1,0L180,12.3l-2.9,2.6l-11.2,1.7l-9.1,3.2l-25.3,28.1l2.1,2.6l-12.4,13.2l3.8,2.6l-16.8,53l1.8,18.9l-0.9,27.8
		l4.1,6.3l4.6-0.3l-0.7,8l3.3,6.3l1.6,26.7l10.1,34.1l2.7,23.2l10.4,22.7l6.2,43.9l1.2,37.6l-4.8-29.5c0,0-29.5,18.4-30.9,18.9
		c-1.4,0.6,6,15.2,6,15.2l39,32.7l87.3,23.5l46.8-11.5l13.6-25.2l-12.4-38.4l0.5-20.9l3.5-4.7"/>
	<polyline fill="none" stroke="#E84F1C" stroke-width="2" stroke-linejoin="bevel" stroke-miterlimit="10" points="293.8,376.5 
		296.9,360.1 296.8,354.1 304.5,365.3 312.8,367.9 320.8,394.6 318.9,418.1 303,443 252.5,459.1 194,439.6 121.8,412 95.8,368.7 
		112.3,359 122.1,347.8 140.6,349.3 	"/>
	<polyline fill="none" stroke="#E84F1C" stroke-width="2" stroke-linejoin="bevel" stroke-miterlimit="10" points="139.4,282.2 
		130.7,316.8 136,348.9 136.9,323.4 142.6,304.7 145,294.2 147.6,345 	"/>
	<polyline fill="none" stroke="#E84F1C" stroke-width="2" stroke-linejoin="bevel" stroke-miterlimit="10" points="113,172.3 
		109.1,179 107.5,198.9 111.1,231 117,242.2 119.1,255.3 123.8,258.5 132.9,256.3 	"/>
	<polyline fill="none" stroke="#E84F1C" stroke-width="2" stroke-linejoin="bevel" stroke-miterlimit="10" points="120.3,189.4 
		116.3,189.4 116.7,211.4 115.3,221.2 121.1,232.1 123,241.7 	"/>
	<polyline fill="none" stroke="#E84F1C" stroke-width="2" stroke-linejoin="bevel" stroke-miterlimit="10" points="234.4,212.8 
		226.2,223.7 226.4,235.4 234.9,241.7 248.1,238.9 260.4,239.7 269.3,238.6 276.2,241.7 284.4,235.4 286,225.1 281.5,217.6 
		279.4,210.2 274.7,204.4 269.9,187.9 	"/>
	<polyline fill="none" stroke="#E84F1C" stroke-width="2" stroke-linejoin="bevel" stroke-miterlimit="10" points="241.1,219.6 
		246.6,221.1 261.1,228.5 261.3,238.3 265.7,229 272.8,223.9 276.2,222.2 	"/>
	<polyline fill="none" stroke="#E84F1C" stroke-width="2" stroke-linejoin="bevel" stroke-miterlimit="10" points="254.7,239.3 
		256.2,232 251.4,229 250.1,228.5 245.3,226.8 235.9,230.5 237.9,233.1 243.7,235.1 250.2,231.1 	"/>
	<polyline fill="none" stroke="#E84F1C" stroke-width="2" stroke-linejoin="bevel" stroke-miterlimit="10" points="267.9,238.3 
		270.9,231.4 275.2,229 275.2,233.1 273,236 271.6,237.1 	"/>
	<polyline fill="none" stroke="#E84F1C" stroke-width="2" stroke-linejoin="bevel" stroke-miterlimit="10" points="338.5,150.6 
		331.1,131.9 330.6,105.8 328.2,97.5 310.9,61.4 310.8,53.9 305.4,56.2 276.1,34.7 271.6,26.1 265.6,29.5 264.1,24.1 258.1,27 
		255.2,22.9 248.4,26.1 240.4,14.9 237.7,24.1 230.5,18.9 228.5,22.7 215,21.5 207.9,21.8 206.5,25.2 198.8,22.1 198.9,26.1 
		170.5,33.5 173.4,36.4 151.3,51 150,54.8 127,88.3 130,92 123.8,100.6 130.2,101.2 125.5,115.6 132.1,116.7 124.4,134.2 
		129.4,159.5 127.2,210.2 136.6,235.4 136.8,245.7 148.3,273.1 153.2,312.3 162.8,294.7 164.6,330.2 172.4,316.5 175,334.1 
		187.4,320.3 191.8,355.1 211.2,324.9 207.9,360.4 224.2,328.7 225.2,360.4 240.4,333.3 242,360.4 248.1,347.8 255,362 260.9,347.8 
		266.1,362 270.8,326.8 277.4,358.1 284.2,324.9 288.2,350.7 296.3,316.5 302.8,341.7 310.4,316.5 314.4,327.2 315.1,298.9 
		319.4,314.6 318.9,287.4 325,297.7 324,282.2 327.8,284.4 327.3,277.5 330.7,273.1 332.4,261.8 332.6,226.8 337,191.8 	"/>
	<polyline fill="none" stroke="#E84F1C" stroke-width="2" stroke-linejoin="bevel" stroke-miterlimit="10" points="225.4,232 
		222.5,235.1 219.6,238.3 227.7,236.4 217.4,240.8 198.7,270.6 201.5,290.7 208.4,287.4 206.9,303.1 199.4,311.3 197.3,295.6 
		193.2,309.9 197.3,332 207.1,316.5 	"/>
	<polyline fill="none" stroke="#E84F1C" stroke-width="2" stroke-linejoin="bevel" stroke-miterlimit="10" points="244.1,307.6 
		247.3,302.1 255.9,328.5 263.6,300.9 265.7,305.6 	"/>
	<polyline fill="none" stroke="#E84F1C" stroke-width="2" stroke-linejoin="bevel" stroke-miterlimit="10" points="252.8,300.9 
		256.3,306.6 258.9,300.9 	"/>
	<polyline fill="none" stroke="#E84F1C" stroke-width="2" stroke-linejoin="bevel" stroke-miterlimit="10" points="199.8,279 
		203.8,270 206.5,277 215,258.5 215.2,270.2 231.3,252.2 228.3,266.8 246.3,246.7 243.3,262.9 256.5,247.5 253.1,262.9 259.4,264.5 
		265,262.9 263.4,244.7 273.2,263.7 271.7,246.9 283.2,266.3 283,252.4 291.2,269 291.1,258.5 301,280 303.4,272.5 307,280 
		303.7,292.7 298.7,287.2 300.8,300.9 305.3,303.8 308.4,293.7 310.3,303.8 304.2,320.5 300.7,309.1 	"/>
	<polyline fill="none" stroke="#E84F1C" stroke-width="2" stroke-linejoin="bevel" stroke-miterlimit="10" points="215.2,270.2 
		210.6,282 219.5,274.5 244.8,267 258.4,271.3 269.8,268.1 290,276.7 294.1,277 287,282.6 268.6,278.7 258.5,280.1 246.9,278.4 
		220.8,283.9 212.7,282.6 222.9,289.9 237,295.3 272.5,293.3 285.1,287 	"/>
	<polyline fill="none" stroke="#E84F1C" stroke-width="2" stroke-linejoin="bevel" stroke-miterlimit="10" points="128.3,154.1 
		151.6,109.6 134.7,124.5 148.7,100.6 137.1,109.2 147.7,93 139.4,99.4 	"/>
	<polyline fill="none" stroke="#E84F1C" stroke-width="2" stroke-linejoin="bevel" stroke-miterlimit="10" points="331.8,133.6 
		311.7,107 324.2,116.7 314.1,93 324,104.9 314.2,84.3 319.7,89.8 	"/>
	<polygon fill="none" stroke="#E84F1C" stroke-width="2" stroke-linejoin="bevel" stroke-miterlimit="10" points="95.8,368.7 
		0,415.1 0,449.5 	"/>
	<polyline fill="none" stroke="#E84F1C" stroke-width="2" stroke-linejoin="bevel" stroke-miterlimit="10" points="121.8,412 
		0,449.5 101.4,500.4 134.8,478.5 194,439.6 182.3,509.9 238.4,544.7 258.6,457.1 303,443 330.4,520.2 342,462.1 356.7,495 
		391.2,409.1 320.8,394.6 	"/>
	
		<line fill="none" stroke="#E84F1C" stroke-width="2" stroke-linejoin="bevel" stroke-miterlimit="10" x1="312.8" y1="367.9" x2="391.2" y2="409.1"/>
	
		<line fill="none" stroke="#E84F1C" stroke-width="2" stroke-linejoin="bevel" stroke-miterlimit="10" x1="319" y1="416.9" x2="342" y2="462.1"/>
	
		<line fill="none" stroke="#E84F1C" stroke-width="2" stroke-linejoin="bevel" stroke-miterlimit="10" x1="182.3" y1="509.9" x2="101.4" y2="500.9"/>
	
		<line fill="none" stroke="#E84F1C" stroke-width="2" stroke-linejoin="bevel" stroke-miterlimit="10" x1="238.4" y1="544.7" x2="330.4" y2="520.2"/>
	<polyline fill="none" stroke="#E84F1C" stroke-width="2" stroke-linejoin="bevel" stroke-miterlimit="10" points="158.3,316.5 
		158.7,339.8 170,332 170.3,347.8 183.3,336.9 183.6,354.1 171.3,356.4 158.8,347.8 159,362 168.3,365 179.7,362 179.9,372.5 
		168.4,372.5 159.2,368.7 156.3,378.8 175.4,378.8 152.1,390.8 139.3,358.7 137.5,383.9 127.7,371.3 130.8,362 	"/>
	<polyline fill="none" stroke="#E84F1C" stroke-width="2" stroke-linejoin="bevel" stroke-miterlimit="10" points="127.2,210.2 
		156.4,201.8 136.6,235.4 191.9,216.3 148.3,273.1 198.7,270.6 	"/>
	<polyline fill="none" stroke="#E84F1C" stroke-width="2" stroke-linejoin="bevel" stroke-miterlimit="10" points="332.4,258.5 
		307.4,269.8 287.6,237.4 284.4,235.4 333,223.5 309.6,213 	"/>
	<polyline fill="none" stroke="#E84F1C" stroke-width="2" stroke-linejoin="bevel" stroke-miterlimit="10" points="173.4,36.4 
		202.4,45 127,88.3 190.7,71.4 191.4,115.7 147.7,93 	"/>
	<polyline fill="none" stroke="#E84F1C" stroke-width="2" stroke-linejoin="bevel" stroke-miterlimit="10" points="149.3,142.1 
		161.5,171.8 165.3,140.4 174.2,161.1 191.1,141 193,156 205.5,143.3 204.2,156 218.4,146.5 213.6,159.5 230.9,152.5 221.6,170 
		235.6,168.8 233.6,161.8 235.6,168.8 232.8,177.9 206.8,198.2 240.5,180.9 230.6,197.7 191.9,216.3 156.4,201.8 154.4,197.1 
		151.4,190.3 144.6,174.6 	"/>
	<polyline fill="none" stroke="#E84F1C" stroke-width="2" stroke-linejoin="bevel" stroke-miterlimit="10" points="270.3,163.1 
		275.8,170 283.4,150.2 285.8,163.1 293.5,149.2 299.3,161.6 307.5,150 312.7,163.1 324.9,154.1 321.1,167.8 334.9,160.6 	"/>
	
		<line fill="none" stroke="#E84F1C" stroke-width="2" stroke-linejoin="bevel" stroke-miterlimit="10" x1="233.6" y1="161.8" x2="245.7" y2="156.1"/>
</svg>
