<svg version="1.1" xmlns="http://www.w3.org/2000/svg" xmlns:xlink="http://www.w3.org/1999/xlink" x="0px" y="0px" width="2135px"
	 height="815.3px" viewBox="0 0 2135 815.3" enable-background="new 0 0 2135 815.3" xml:space="preserve">
<g id="Warstwa_1">
	<polyline fill="none" stroke="#E84E1B" stroke-width="2" stroke-miterlimit="10" points="542.9,538.5 335.5,538.5 335.5,274.5 	"/>
	<polyline fill="none" stroke="#E84E1B" stroke-width="2" stroke-miterlimit="10" points="1296.5,536.7 1296.5,612.8 1075.5,612.8 	
		"/>
	<rect x="1075.5" y="585.6" fill="#E84E1B" width="28" height="28"/>
	<rect x="1019.5" y="585.6" fill="none" stroke="#E84E1B" stroke-width="2" stroke-miterlimit="10" width="28" height="28"/>
	<g>
		<polyline fill="none" stroke="#E84E1B" stroke-width="2" stroke-miterlimit="10" points="21.7,200.3 21.7,274.5 335.5,274.5 
			335.5,377.1 736,377.1 		"/>
		<polyline fill="none" stroke="#E84E1B" stroke-width="2" stroke-miterlimit="10" points="281,274.5 439.9,274.5 439.9,377.1 
			738.7,377.1 738.7,484.1 		"/>
		<path fill="none" stroke="#E84E1B" stroke-width="2" stroke-miterlimit="10" d="M309.3,377.1"/>
		<polyline fill="none" stroke="#E84E1B" stroke-width="2" stroke-miterlimit="10" points="768.5,538.5 795,538.5 795,380.9 
			809.2,380.9 809.2,484.1 		"/>
		<polyline fill="none" stroke="#E84E1B" stroke-width="2" stroke-miterlimit="10" points="101.9,274.5 374.6,274.5 374.6,538.5 
			559,538.5 559,446.5 		"/>
		<polyline fill="none" stroke="#E84E1B" stroke-width="2" stroke-miterlimit="10" points="0,178.4 0,274.5 335.5,274.5 		"/>
		<polyline fill="none" stroke="#E84E1B" stroke-width="2" stroke-miterlimit="10" points="721.9,538.5 1296.5,538.5 1296.5,274.5 
			1414.8,274.5 1414.8,171.7 		"/>
		<polyline fill="none" stroke="#E84E1B" stroke-width="2" stroke-miterlimit="10" points="1424.4,274.5 1125.2,274.5 1125.2,538.5 
			559,538.5 559,446.6 		"/>
		<polyline fill="none" stroke="#E84E1B" stroke-width="2" stroke-miterlimit="10" points="795,381.1 795,538.5 559,538.5 
			559,446.5 		"/>
		<polyline fill="none" stroke="#E84E1B" stroke-width="2" stroke-miterlimit="10" points="1213.5,0 1213.5,407.2 883,407.2 
			883,380.9 854.4,380.9 854.4,484.1 		"/>
		<polyline fill="none" stroke="#E84E1B" stroke-width="2" stroke-miterlimit="10" points="1087.1,0.4 1087.1,0.4 903.9,0.4 
			903.9,107.5 1085.1,107.5 1085.1,407.2 883,407.2 883,380.9 		"/>
		<polyline fill="none" stroke="#E84E1B" stroke-width="2" stroke-miterlimit="10" points="987.9,0.4 543,0.4 543,538.5 
			573.8,538.5 573.8,458.9 		"/>
		<polyline fill="none" stroke="#E84E1B" stroke-width="2" stroke-miterlimit="10" points="960.7,380.9 1238.3,380.9 1238.3,274.5 
			1424.4,274.5 1424.4,190.8 		"/>
		<polyline fill="none" stroke="#E84E1B" stroke-width="2" stroke-miterlimit="10" points="1424.4,274.5 1255.8,274.5 1255.8,380.9 
			944.6,380.9 944.6,484.1 		"/>
		<polyline fill="none" stroke="#E84E1B" stroke-width="2" stroke-miterlimit="10" points="176.2,274.5 497.9,274.5 497.9,0.4 
			1076.5,0.4 1076.5,0.4 		"/>
		<polyline fill="none" stroke="#E84E1B" stroke-width="2" stroke-miterlimit="10" points="1171.6,0.4 1288.9,0.4 1288.9,274.5 
			1404.8,274.5 1404.8,150 		"/>
		<polyline fill="none" stroke="#E84E1B" stroke-width="2" stroke-miterlimit="10" points="1424.4,274.5 1227.7,274.5 1227.7,0.4 
			1087.1,0.4 1087.1,0.4 		"/>
		<polyline fill="none" stroke="#E84E1B" stroke-width="2" stroke-miterlimit="10" points="930.9,0.4 426.5,0.4 426.5,274.5 
			11.3,274.5 11.3,190.3 		"/>
		<polyline fill="none" stroke="#E84E1B" stroke-width="2" stroke-miterlimit="10" points="233.9,274.5 473.8,274.5 473.8,126.1 
			1163.9,126.1 1163.9,274.5 1424.4,274.5 1424.4,190.8 		"/>
		<polyline fill="none" stroke="#E84E1B" stroke-width="2" stroke-miterlimit="10" points="1424.4,274.5 1108.8,274.5 1108.8,126.1 
			397,126.1 397,274.5 21.7,274.5 21.7,200.3 		"/>
		<polyline fill="none" stroke="#E84E1B" stroke-width="2" stroke-miterlimit="10" points="664.9,538.5 1143.6,538.5 1143.6,162.7 
			1064.5,162.7 1064.5,0 		"/>
	</g>
	<g>
		<text transform="matrix(1 0 0 1 613.9805 249.3994)"><tspan x="0" y="0" fill="#E84E1B" font-family="'KumarOne-Regular'" font-size="42.0879">Alan Rudzinski</tspan><tspan x="7.4" y="50.5" fill="#E84E1B" font-family="'KumarOne-Regular'" font-size="42.0879">Web Developer</tspan></text>
	</g>
	<line fill="none" stroke="#E84E1B" stroke-width="2" stroke-miterlimit="10" x1="1288.9" y1="0.4" x2="2135" y2="0.4"/>
	<polyline fill="none" stroke="#E84E1B" stroke-width="2" stroke-miterlimit="10" points="1518.9,274.5 1755.3,274.5 1755.3,815.3 	
		"/>
</g>
	<defs>
		<path id="SVGID_3_" d="M15473.2-2275.8c-3.3,0-6.4,0-9.6,0c0-11.1,0-22.1,0-33.1c3.1,0,6.1,0,9.2,0c0,1.4,0,2.8,0,4.2
			c0.1,0,0.2,0,0.3,0c1.7-2.6,4.2-3.7,7.2-4.1c2.5-0.3,4.9-0.3,7.3,0.4c4.1,1.1,6.3,3.9,7,8c0.3,1.9,0.5,3.9,0.5,5.9
			c0.1,6.1,0,12.2,0,18.3c0,0.2,0,0.3,0,0.5c-3.3,0-6.5,0-9.8,0c0-0.3,0-0.7,0-1c0-5.5,0-11.1-0.1-16.6c0-1.5-0.3-3-0.8-4.4
			c-0.8-2.2-2.6-3-4.9-3c-2.3,0-4.3,0.7-5.1,3c-0.6,1.5-0.9,3.1-0.9,4.7c-0.1,5.2,0,10.4,0,15.6
			C15473.2-2276.9,15473.2-2276.4,15473.2-2275.8z"/>
	</defs>
	<defs>
		<path id="SVGID_4_" d="M15456.8-2275.8c-3.9,0-7.7,0-11.5,0c0-11,0-22,0-33.1c3.8,0,7.6,0,11.5,0
			C15456.8-2297.9,15456.8-2286.9,15456.8-2275.8z"/>
	</defs>
	<defs>
		<path id="SVGID_5_" d="M15450.9-2314c-3.1,0-5.7-2.7-5.7-5.7c0-3.3,2.6-5.9,5.9-5.9c3.1,0,5.8,2.7,5.7,5.8
			C15456.8-2316.5,15454.2-2314,15450.9-2314z"/>
	</defs>
	<clipPath id="SVGID_1_">
		<use xlink:href="#SVGID_3_"  overflow="visible"/>
	</clipPath>
	<clipPath id="SVGID_2_" clip-path="url(#SVGID_1_)">
		<use xlink:href="#SVGID_4_"  overflow="visible"/>
	</clipPath>
	<clipPath id="SVGID_6_" clip-path="url(#SVGID_2_)">
		<use xlink:href="#SVGID_5_"  overflow="visible"/>
	</clipPath>
</g>
</svg>
