<svg version="1.1" xmlns="http://www.w3.org/2000/svg" xmlns:xlink="http://www.w3.org/1999/xlink" x="0px" y="0px"
	 width="2122.8px" height="619.8px" viewBox="0 0 2122.8 619.8" enable-background="new 0 0 2122.8 619.8" xml:space="preserve">
<g id="Warstwa_1">
	<g>
		<path fill-rule="evenodd" clip-rule="evenodd" fill="none" stroke="#E84E1B" stroke-width="2" stroke-miterlimit="10" d="
			M1603,569.3c-15.1-5.5-27.4,0.1-38.5,9.7c-7,6-13.8,12.2-20.4,18.7c-2,1.9-4.4,6.7-3.9,7.2c2.8,2.6,6.4,5.2,10.1,6.1
			c2.4,0.5,5.8-1.6,8.1-3.3c3.5-2.7,6.5-6.2,9.7-9.3c13.4-13.2,22.4-13.3,36.9-0.8c2.3,2.1,4.5,4.1,6.8,6.3
			c21.6,20.6,51.2,21.3,74.2,1.8c4.5-3.8,8.8-7.7,13.3-11.6c7.5-6.5,13.8-7.6,22-1.8c7.3,5.1,13.4,11.8,20.5,17.2
			c2.9,2.2,7.1,2.9,10.6,4.3c0.5-4.9,3.4-11.7,1.2-14.5c-10.3-13.4-22.8-24.8-39.6-29.7c-8.3-2.4-16,0.4-22.8,5.5
			c-5.6,4.2-11,8.7-16.7,12.7c-13.8,9.7-33,15.2-50.2-2C1617.9,579.4,1610.1,574.7,1603,569.3z"/>
		<path fill-rule="evenodd" clip-rule="evenodd" fill="none" stroke="#E84E1B" stroke-width="2" stroke-miterlimit="10" d="
			M1610.2,506.9c-10.9-3.6-20.2-0.4-28.9,6.4c-10.9,8.6-21.2,18.3-36.2,19.8c-7.9,0.8-14.9-0.1-21.2-5.3c-7.3-6-14.6-12.2-22.4-17.6
			c-14-9.8-27.6-8.9-40.6,2.4c-8.2,7.1-16.6,14.2-24.5,21.7c-2,1.9-4.2,6.9-3.4,8c2.7,3.3,5.7,8.4,11.6,5.2c2.7-1.4,5.5-2.8,7.7-4.8
			c3.8-3.3,7-7.2,10.7-10.7c9.5-9,20.9-9.4,31-1c2.8,2.3,5.5,4.9,7.8,7.6c21,24.9,55.5,21.3,76,4c4.3-3.6,8.3-7.5,12.4-11.3
			c6.6-6.2,13.8-8.1,22-3.1c6.5,5.6,13,11.3,19.5,16.8c3.8,3.3,7.3,8.8,13.4,4.3c3.9-2.9,3.4-12.8-1.3-16.7
			C1632.9,523.8,1621.4,515.5,1610.2,506.9z"/>
		<path fill="none" stroke="#E84E1B" stroke-width="2" stroke-miterlimit="10" d="M1750.3,436.5c-6.4,0.6-14.1,1-23.4,4.5
			s-37.3,17.2-56.1,25.5c-2,0.9-5.4,0.4-7.5-0.6c-14.8-7.8-29.4-16-44.2-23.9c-13.4-7.1-26-5.9-39,2.3
			c-14.1,8.9-29.2,16.4-43.7,24.6c-5.7,3.2-10.7,3.2-16.9,0.2c-20.8-10.2-41.7-20.2-63-29.4c-14.6-6.3-28.7-1.8-41.7,5.8
			c-9.3,5.4-17.9,12-26.8,18c-9.1,6.2-19.4,9.1-30.2,10.6c-2.1,0.3-4.7-0.7-6.8-1.7c-19-8.9-38.1-17.7-56.8-27.1
			c-18.9-9.5-36.6-7.1-54.9,2c-17.5,8.7-35.8,15.8-53.8,23.3c-2,0.8-5.2,0.6-7.1-0.4c-12.3-6.6-24.2-14-36.6-20.5
			c-11.8-6.2-24.1-11.8-37.8-12.3c-19.4-0.8-35.6,7.3-50.7,18.4c-9.9,7.3-19.7,14.9-30.1,21.5c-4.5,2.9-10.3,4.2-15.7,5.2
			c-2.8,0.5-6.3-0.7-8.9-2.3c-18-10.5-36.7-19.2-57.1-24.3c-23.3-5.9-45-2.4-65.5,10.1c-8.7,5.3-17.5,10.4-26.6,14.7
			c-7.7,3.7-14.9,3.3-22.8-2c-10.3-6.9-21.9-12.4-33.4-17.2c-20.4-8.5-40.4-5.2-60.4,3c-13.8,5.7-28,10.4-42.5,13.9
			c-16.2,3.9-32.8,3.7-46.9-7.2c-6.1-4.7-11.3-10.7-17.2-15.7c-9-7.5-17.9-15.1-27.5-21.8c-12-8.3-26.2-10.7-40.4-11.6
			c-21.8-1.4-43.4,1.3-65,4.3c-15.8,2.1-31.7,3.6-47.5,5.1c-10.3,1-20.7,2.1-31,2.2c-25.2,0.2-50.2-2.2-74.6-8.9
			c-2.6-0.7-5.4-1.1-8.6-1.8"/>
		<path fill="none" stroke="#E84E1B" stroke-width="2" stroke-miterlimit="10" d="M1740.3,0"/>
	</g>
	<polyline fill="none" stroke="#E84E1B" stroke-width="2" stroke-miterlimit="10" points="1043.5,618.3 331.6,618.3 331.6,423 	"/>
	<rect x="1071.5" y="590.3" fill="none" stroke="#E84E1B" stroke-width="2" stroke-miterlimit="10" width="28" height="28"/>
	<rect x="1015.5" y="590.3" fill="#E84E1B" width="28" height="28"/>
	<g>
		<path fill="#E84E1B" d="M559.9,110.1c-9.5-8.3-20-13.2-31.8-13.2c-3.9,0-7.9,0.5-12,1.6c-25.7,6.7-43.8,23.3-55.6,46.1
			c-10.5,20.4-6,38.5,11.1,52.6c7.3,6,15.1,9.8,23.6,9.8c4.8,0,9.8-1.2,15-3.9c15.9-8.1,27.1-19.4,26.7-38.3
			c-0.2-10-5.7-18.1-15-22.2c-3.1-1.4-6.3-2-9.4-2c-5,0-9.9,1.7-14.2,4.9c-8.4,6.3-4.4,14.9-2.3,22.8c0.2,0.6-0.2,1.4-0.5,3.1
			c-15.4-11-16.4-20.9-4.3-33.2c6.2-6.3,13.6-10.7,21.7-13.8c4.5-1.7,8.9-2.5,13.1-2.5c17.7,0,31.4,14.4,29.6,34.6
			c-2.5,26.9-29.6,56.1-59.6,64.3c-4.8,1.3-9.6,1.9-14.2,1.9c-26.2,0-48.3-19.7-48.5-47.8c-0.1-23.2,11.3-42.5,28.6-57.7
			c6.5-5.7,13.9-10.7,17.4-18.8c2.4-5.6,6.3-12.2,1.4-18.1c-2.5-3-5.4-4-8.4-4c-3.4,0-7,1.2-10.4,2.2
			c-30.2,8.9-71.1,56.8-63.8,103.7c7.6,49.5,39.4,69.6,77.3,69.6c1.1,0,2.2,0,3.2,0c26-0.8,50.3-9.3,71.8-24
			C589.6,200.8,598.1,143.6,559.9,110.1z M478.3,249.6c-1.1,0-2.1,0-3.2,0c-41.8,0-68.5-24.1-75.2-67.8
			c-3.2-20.7,3.1-43.6,17.5-64.6c12.6-18.3,29.8-32.4,44.8-36.8c0.4-0.1,0.9-0.3,1.3-0.4c2.9-0.9,5.9-1.8,8.6-1.8c2.8,0,5,1,6.8,3.3
			c3.3,4,1.8,8.2-0.9,14.1c-0.3,0.6-0.5,1.2-0.8,1.8c-2.6,6.1-7.7,10.3-13,14.7c-1.3,1.1-2.6,2.2-3.9,3.3
			c-19.5,17.3-29.4,37.2-29.3,59.3c0.1,28,22.3,49.9,50.5,49.9c4.9,0,9.9-0.7,14.8-2c30.6-8.3,58.6-38.6,61.1-66.1
			c0.9-10.4-2-19.9-8.3-26.8c-5.9-6.5-14.2-10.1-23.4-10.1c-4.6,0-9.2,0.9-13.8,2.6c-9,3.4-16.3,8.1-22.5,14.3
			c-6.4,6.5-9.3,12.4-8.8,18.1c0.5,6.1,4.9,12.1,13.4,18.2c0.4,0.3,0.8,0.4,1.2,0.4c0.3,0,0.5-0.1,0.8-0.2c0.7-0.3,1.1-0.9,1.3-1.6
			c0.1-0.6,0.2-1,0.3-1.4c0.2-0.9,0.4-1.7,0.2-2.6c-0.3-1.1-0.6-2.2-0.9-3.2c-2-6.9-3.7-12.8,2.5-17.4c3.9-2.9,8.4-4.5,12.9-4.5
			c2.9,0,5.8,0.6,8.6,1.9c8.5,3.8,13.5,11.2,13.8,20.3c0.4,15.8-7.7,27.3-25.5,36.4c-4.7,2.4-9.5,3.6-14.1,3.6
			c-7.4,0-14.7-3-22.3-9.3c-16.7-13.7-20.3-31-10.5-50c12.2-23.7,30.5-38.9,54.2-45.1c3.9-1,7.7-1.5,11.5-1.5
			c10.6,0,20.9,4.3,30.5,12.6c16.7,14.6,25.1,34.6,23.8,56.4c-1.4,23-13.8,44.7-33.3,58C527.2,241,503.4,248.9,478.3,249.6z"/>
		<path fill="#E84E1B" d="M562.5,250.1c-3-3.1-6.2-5.1-9.9-5.1c-1.6,0-3.4,0.4-5.2,1.3c-5.5,2.7-6.6,7.8-6.6,13.6
			c6.7,21.4,17.4,40.3,35.1,54.6c1.3,1,2.7,1.4,4.2,1.4c2.2,0,4.4-0.9,6.5-2c3.8-2.2,5.3-5.7,4.2-9.6
			C584.8,284.5,577.3,265.4,562.5,250.1z M585.5,312.1c-2,1.2-3.9,1.8-5.5,1.8c-1.1,0-2-0.3-2.8-1c-15.9-12.8-27.1-30.3-34.4-53.3
			c0.1-6.4,1.6-9.6,5.5-11.4c1.5-0.7,2.9-1.1,4.3-1.1c2.8,0,5.5,1.5,8.4,4.5c14.9,15.4,22.1,34.8,27.7,53.4
			C589.6,307.9,588.4,310.4,585.5,312.1z"/>
		<path fill="#E84E1B" d="M508.2,72.2c0.8,0.2,1.6,0.3,2.4,0.3c4.9,0,7.5-4.4,9.6-8.4c7.6-13.8,9.5-29,10.7-45
			c-0.3-7.4-0.4-17-9.6-18.9c-0.7-0.2-1.5-0.2-2.1-0.2c-7.2,0-10.9,8-13,14.2c-5.1,14.5-6.8,29.9-7.1,45.3
			C498.9,65.5,502,70.6,508.2,72.2z M508.1,14.9c1.9-5.5,5.2-12.8,11-12.8c0.6,0,1.1,0.1,1.7,0.2c6.7,1.4,7.5,7.6,7.9,16.2l0,0.6
			c-1.1,14.8-2.9,30.4-10.4,44c-2.3,4.1-4.3,7.3-7.8,7.3c-0.6,0-1.2-0.1-1.9-0.3c-4.9-1.3-7.7-5.1-7.6-10.6
			C501.4,41.9,503.7,27.7,508.1,14.9z"/>
		<polygon fill="#E84E1B" points="351,145.8 351,145.8 351,145.8 		"/>
		<path fill="#E84E1B" d="M378,168.4c3.8-1.6,8.1-3.7,8.1-8.3c0.1-4.7-4.3-6.9-8-8.6c-9.1-4-18.2-5.8-27.3-5.8v2.1
			c9.1,0,18,1.9,26.4,5.6c4.2,1.8,6.8,3.6,6.7,6.6c-0.1,3.2-3.1,4.8-6.9,6.5c-9.1,3.9-17.6,5.9-26,5.9c-0.5,0-0.9,0-1.4,0
			c-11.9-0.2-21.8-2.7-30.3-7.4c-3.1-1.7-4.9-3.9-4.8-5.8c0.1-1.7,1.7-3.3,4.5-4.4c11-4.6,21.7-6.9,31.8-6.9l0-2.1h0
			c-11,0-21.9,2.6-32.6,7.1c-2.5,1-4.1,2.4-5,3.9H0v2h312.6c-0.4,2.8,1.6,5.8,5.8,8.1c9.7,5.4,20.3,7.4,31.3,7.6c0.5,0,1,0,1.5,0
			C360.6,174.5,369.5,172.1,378,168.4z"/>
		<path fill="#E84E1B" d="M645,230c-12.2-8.8-24.6-17.3-38-24.4c-3.1-1.6-6.3-3-10.2-3c-0.8,0-1.6,0-2.4,0.2
			c-0.7-0.2-1.5-0.3-2.2-0.3c-3.5,0-6.3,2.2-7.7,6.4c-1.7,5.2-0.7,9.6,4.2,12.7c14.8,9.6,29.7,19.2,45.8,26.5
			c2.8,1.3,5.9,2.5,8.7,2.5c2.7,0,5.2-1.1,7.3-4.5C654.8,239.1,650.5,234.1,645,230z M648.8,245.1c-1.4,2.4-3.1,3.5-5.5,3.5
			c-2.4,0-5.2-1.2-7.9-2.4c-16.2-7.3-31.1-17-45.5-26.3c-3.8-2.5-4.9-5.7-3.3-10.3c0.7-2.2,2.3-4.9,5.7-4.9c0.5,0,1.1,0.1,1.7,0.2
			c0.2,0,0.3,0.1,0.5,0.1c0.1,0,0.2,0,0.3,0c0.7-0.1,1.4-0.1,2.1-0.1c3.6,0,6.6,1.3,9.3,2.7c13.9,7.3,26.9,16.4,37.7,24.2
			C650.2,236.4,651.7,240.3,648.8,245.1z"/>
		<path fill="#E84E1B" d="M499.6,265.9c-0.3,0-0.6,0-0.9,0.1c-4.4,0.5-6,4.3-7,7.9c-2.9,11.3-3.8,22.8-4.4,34.4
			c-0.4,7.6,0.8,14.9,3.1,22.1c1.1,3.6,2.7,7.4,7.1,7.9c0.4,0,0.7,0.1,1.1,0.1c4.1,0,7.1-2.9,8.6-6.4c8.8-19.9,8.1-39.9-0.1-59.7
			C505.9,269,503.5,265.9,499.6,265.9z M505.4,331c-0.7,1.6-2.7,5.2-6.7,5.2c-0.3,0-0.6,0-0.8,0c-2.8-0.3-4.1-2.7-5.3-6.4
			c-2.4-7.6-3.4-14.6-3-21.3c0.6-12.8,1.6-23.5,4.3-33.9c1.1-4.2,2.6-6.1,5.2-6.4c0.2,0,0.5,0,0.7,0c3,0,4.7,2.7,5.6,4.9
			C513.6,293,513.6,312.5,505.4,331z"/>
		<path fill="#E84E1B" d="M432.5,75.2c0.8,0,1.6-0.2,2.6-0.6c4.7-2,4.7-6.3,4.6-10.7c-2.4-21.8-12.2-40-27.3-55.4
			c-1.9-1.9-3.5-2.8-4.8-2.8c-2.3,0-3.8,2.5-4.8,6.8c-5.3,24.1,6.8,41.2,22.1,57.2C427.1,72.1,429.1,75.2,432.5,75.2z M404.8,13
			c0.8-3.8,2-5.1,2.7-5.1c0.4,0,1.4,0.2,3.3,2.2c15.5,15.8,24.5,34,26.7,54.1c0.1,4.5-0.1,7.3-3.3,8.6c-0.6,0.3-1.2,0.4-1.8,0.4
			c-1.7,0-2.9-1.3-4.8-3.5c-0.4-0.5-0.8-0.9-1.3-1.4C409.9,51.1,400,35.1,404.8,13z"/>
		<path fill="#E84E1B" d="M340.7,80.6c13.2,18.3,33,26.5,53.4,33c1.1,0.3,2,0.5,2.9,0.5c4.8,0,7.2-4.5,5.8-10.6
			c-1.5-6.9-7.2-10.1-12.4-13.7c-15.2-10.5-31.6-18.4-49-23.8c-0.1,0-0.2,0-0.3,0c-4,0-5.7,2-4.6,5.6
			C337.5,74.6,338.7,78,340.7,80.6z M338.6,68.7c0.3-0.4,1.3-0.7,2.6-0.7c17.1,5.3,33.3,13.2,48.1,23.5c0.5,0.4,1,0.7,1.6,1.1
			c4.5,3.1,8.8,6,10,11.4c0.6,2.9,0.3,5.3-0.8,6.8c-0.7,0.9-1.7,1.3-3,1.3c-0.7,0-1.5-0.1-2.3-0.4c-22.6-7.2-40.2-15.4-52.4-32.2
			c-1.9-2.6-3-5.9-3.8-8.5C338.3,69.9,338.3,69.1,338.6,68.7z"/>
		<path fill="#E84E1B" d="M449.4,257.2c-1.4-0.7-2.8-1.1-4.2-1.1c-3.2,0-6.2,1.8-8.2,4c-13.3,14.7-23.8,31-24.4,51.6
			c-0.2,6.3,1.6,9.5,5,9.5c2,0,4.5-1.1,7.6-3.2c17.7-12.2,22.3-31.9,27.8-48.1C453.1,263.4,453.4,259.3,449.4,257.2z M451,268.6
			l0,1.1c-0.6,1.8-1.2,3.7-1.9,5.6c-4.7,14.4-10,30.7-25,41.1c-3.4,2.3-5.4,2.8-6.5,2.8c-0.9,0-1.3-0.3-1.5-0.6
			c-0.6-0.6-1.5-2.3-1.4-6.8c0.5-17.2,7.8-32.7,23.8-50.3c1.9-2,4.3-3.3,6.6-3.3c1.1,0,2.2,0.3,3.2,0.8
			C450.8,260.3,451,262.4,451,268.6z"/>
		<path fill="#E84E1B" d="M580.2,103.5c1.2,0,2.5-0.1,3.7-0.1c0.8,0.1,1.5,0.1,2.3,0.1c3.6,0,7.3-1.1,10.7-3.9
			c7.5-6.1,15.4-11.9,23.1-17.8c5.9-4.5,10.3-10.3,4.6-17c-2.4-2.8-5.1-4-8-4c-3.4,0-6.9,1.6-10.1,4c-10,7.3-19.9,14.7-29.6,22.3
			c-3.5,2.7-7.5,6-5.9,11.2C572.5,102.9,576.1,103.5,580.2,103.5z M578.1,88.7c9.7-7.6,19.5-14.8,29.6-22.2c3.2-2.3,6.3-3.6,8.9-3.6
			c2.5,0,4.6,1.1,6.4,3.2c1.6,1.9,2.3,3.7,2.1,5.5c-0.3,2.6-2.4,5.4-6.4,8.5c-2.2,1.7-4.4,3.3-6.5,4.9c-5.5,4.2-11.2,8.5-16.7,12.9
			c-2.8,2.3-6,3.4-9.4,3.4c-0.7,0-1.3,0-2-0.1c-0.1,0-0.2,0-0.3,0h0c-0.6,0-1.2,0-1.8,0c-0.7,0-1.3,0-2,0c-4.5,0-6.3-0.9-7.2-3.7
			C571.8,94,574.3,91.8,578.1,88.7z"/>
		<polygon fill="#E84E1B" points="391.4,218.6 391.4,218.6 391.4,218.6 		"/>
		<path fill="#E84E1B" d="M391.8,218.6c-0.1,0-0.3,0-0.4,0v2.1c0.1,0,0.2,0,0.4,0c1.8,0.1,4.2,0.4,5.1,1.7c1.3,1.9-0.2,5.9-0.7,7.3
			c-1.4,3.8-7.8,9.8-16.2,15.1c-8.4,5.3-16.8,8.7-21.3,8.7c-0.1,0-0.1,0-0.2,0c-3.2-0.2-5.1-0.9-5.8-1.9c-0.8-1.2-0.2-3.5,0.5-5.2
			c4-10.3,26.9-25.7,38.3-25.7l0-2.1h0c-12.4,0-36,15.9-40.3,27c-2.8,7.4,0.8,9.6,7.2,10c0.1,0,0.2,0,0.3,0
			c10.7,0,36.1-15.8,39.5-25.2C400.1,224.8,401.1,218.9,391.8,218.6z"/>
		<path fill="#E84E1B" d="M1532.7,154.7H671.9c0.6-1.9,0.6-4.1,0.1-6.5c-1.1-5.4-5.4-8.1-10-8.1c-0.7,0-1.3,0.1-2,0.2
			c-17.3,2.7-35.3,2.4-51.7,9.9c-5.1,2.3-12.4,3.5-11.2,10.4c1.2,6.6,7.8,9.7,14.5,10.5c1,0.1,1.9,0.2,2.9,0.2c1.7,0,3.3-0.1,5-0.1
			c15.7-0.1,30.2-5.1,44.9-9.8c3.1-1,5.3-2.6,6.5-4.7h861.7V154.7z M663.8,159.4c-1.1,0.4-2.3,0.7-3.4,1.1
			c-13.2,4.2-26.8,8.5-40.9,8.6c-0.9,0-1.7,0-2.6,0.1c-0.8,0-1.6,0.1-2.4,0.1c-1,0-1.9,0-2.7-0.1c-4.3-0.5-11.6-2.4-12.7-8.8
			c-0.6-3.6,1.6-4.9,7-6.9c1-0.4,2-0.8,3-1.2c11.6-5.3,24.3-6.6,36.5-7.9c4.8-0.5,9.8-1,14.6-1.8c0.5-0.1,1.1-0.1,1.6-0.1
			c4.2,0,7.2,2.4,8,6.4C671.1,154.2,669.1,157.8,663.8,159.4z"/>
	</g>
	<polyline fill="none" stroke="#E84E1B" stroke-width="2" stroke-miterlimit="10" points="2122.8,0 1750.3,0 1750.3,436.5 	"/>
</g>
<g id="home-contact">
	<defs>
		<path id="SVGID_3_" d="M15491.2-1061.7c-3.3,0-6.4,0-9.6,0c0-11.1,0-22.1,0-33.1c3.1,0,6.1,0,9.2,0c0,1.4,0,2.8,0,4.2
			c0.1,0,0.2,0,0.3,0c1.7-2.6,4.2-3.7,7.2-4.1c2.5-0.3,4.9-0.3,7.3,0.4c4.1,1.1,6.3,3.9,7,8c0.3,1.9,0.5,3.9,0.5,5.9
			c0.1,6.1,0,12.2,0,18.3c0,0.2,0,0.3,0,0.5c-3.3,0-6.5,0-9.8,0c0-0.3,0-0.7,0-1c0-5.5,0-11.1-0.1-16.6c0-1.5-0.3-3-0.8-4.4
			c-0.8-2.2-2.6-3-4.9-3c-2.3,0-4.3,0.7-5.1,3c-0.6,1.5-0.9,3.1-0.9,4.7c-0.1,5.2,0,10.4,0,15.6
			C15491.2-1062.8,15491.2-1062.3,15491.2-1061.7z"/>
	</defs>
	<defs>
		<path id="SVGID_4_" d="M15474.8-1061.7c-3.9,0-7.7,0-11.5,0c0-11,0-22,0-33.1c3.8,0,7.6,0,11.5,0
			C15474.8-1083.8,15474.8-1072.8,15474.8-1061.7z"/>
	</defs>
	<defs>
		<path id="SVGID_5_" d="M15469-1099.9c-3.1,0-5.7-2.7-5.7-5.7c0-3.3,2.6-5.9,5.9-5.9c3.1,0,5.8,2.7,5.7,5.8
			C15474.9-1102.4,15472.3-1099.8,15469-1099.9z"/>
	</defs>
	<clipPath id="SVGID_1_">
		<use xlink:href="#SVGID_3_"  overflow="visible"/>
	</clipPath>
	<clipPath id="SVGID_2_" clip-path="url(#SVGID_1_)">
		<use xlink:href="#SVGID_4_"  overflow="visible"/>
	</clipPath>
	<clipPath id="SVGID_6_" clip-path="url(#SVGID_2_)">
		<use xlink:href="#SVGID_5_"  overflow="visible"/>
	</clipPath>
</g>
</svg>
