<?xml version="1.0" encoding="utf-8"?>
<!-- Generator: Adobe Illustrator 16.0.0, SVG Export Plug-In . SVG Version: 6.00 Build 0)  -->
<!DOCTYPE svg PUBLIC "-//W3C//DTD SVG 1.1//EN" "http://www.w3.org/Graphics/SVG/1.1/DTD/svg11.dtd">
<svg version="1.1" id="Warstwa_1" xmlns="http://www.w3.org/2000/svg" xmlns:xlink="http://www.w3.org/1999/xlink" x="0px" y="0px"
	 width="359.8px" height="338.3px" viewBox="0 0 359.8 338.3" enable-background="new 0 0 359.8 338.3" xml:space="preserve">
<g>
	<path fill="#E8501D" d="M247.3,110.1c-9.5-8.3-20-13.2-31.8-13.2c-3.9,0-7.9,0.5-12,1.6c-25.7,6.7-43.8,23.3-55.6,46.1
		c-10.5,20.4-6,38.5,11.1,52.6c7.3,6,15.1,9.8,23.6,9.8c4.8,0,9.8-1.2,15-3.9c15.9-8.1,27.1-19.4,26.7-38.3
		c-0.2-10-5.7-18.1-15-22.2c-3.1-1.4-6.3-2-9.4-2c-5,0-9.9,1.7-14.2,4.9c-8.4,6.3-4.4,14.9-2.3,22.8c0.2,0.6-0.2,1.4-0.5,3.1
		c-15.4-11-16.4-20.9-4.3-33.2c6.2-6.3,13.6-10.7,21.7-13.8c4.5-1.7,8.9-2.5,13.1-2.5c17.7,0,31.4,14.4,29.6,34.6
		c-2.5,26.9-29.6,56.1-59.6,64.3c-4.8,1.3-9.6,1.9-14.2,1.9c-26.2,0-48.3-19.7-48.5-47.8c-0.1-23.2,11.3-42.5,28.6-57.7
		c6.5-5.7,13.9-10.7,17.4-18.8c2.4-5.6,6.3-12.2,1.4-18.1c-2.5-3-5.4-4-8.4-4c-3.4,0-7,1.2-10.4,2.2c-30.2,8.9-71.1,56.8-63.8,103.7
		c7.6,49.5,39.4,69.6,77.3,69.6c1.1,0,2.2,0,3.2,0c26-0.8,50.3-9.3,71.8-24C277,200.8,285.6,143.6,247.3,110.1z M165.8,249.6
		c-1.1,0-2.1,0-3.2,0c-41.8,0-68.5-24.1-75.2-67.8c-3.2-20.7,3.1-43.6,17.5-64.6c12.6-18.3,29.8-32.4,44.8-36.8
		c0.4-0.1,0.9-0.3,1.3-0.4c2.9-0.9,5.9-1.8,8.6-1.8c2.8,0,5,1,6.8,3.3c3.3,4,1.8,8.2-0.9,14.1c-0.3,0.6-0.5,1.2-0.8,1.8
		c-2.6,6.1-7.7,10.3-13,14.7c-1.3,1.1-2.6,2.2-3.9,3.3c-19.5,17.3-29.4,37.2-29.3,59.3c0.1,28,22.3,49.9,50.5,49.9
		c4.9,0,9.9-0.7,14.8-2c30.6-8.3,58.6-38.6,61.1-66.1c0.9-10.4-2-19.9-8.3-26.8c-5.9-6.5-14.2-10.1-23.4-10.1
		c-4.6,0-9.2,0.9-13.8,2.6c-9,3.4-16.3,8.1-22.5,14.3c-6.4,6.5-9.3,12.4-8.8,18.1c0.5,6.1,4.9,12.1,13.4,18.2
		c0.4,0.3,0.8,0.4,1.2,0.4c0.3,0,0.5-0.1,0.8-0.2c0.7-0.3,1.1-0.9,1.3-1.6c0.1-0.6,0.2-1,0.3-1.4c0.2-0.9,0.4-1.7,0.2-2.6
		c-0.3-1.1-0.6-2.2-0.9-3.2c-2-6.9-3.7-12.8,2.5-17.4c3.9-2.9,8.4-4.5,12.9-4.5c2.9,0,5.8,0.6,8.6,1.9c8.5,3.8,13.5,11.2,13.8,20.3
		c0.4,15.8-7.7,27.3-25.5,36.4c-4.7,2.4-9.5,3.6-14.1,3.6c-7.4,0-14.7-3-22.3-9.3c-16.7-13.7-20.3-31-10.5-50
		c12.2-23.7,30.5-38.9,54.2-45.1c3.9-1,7.7-1.5,11.5-1.5c10.6,0,20.9,4.3,30.5,12.6c16.7,14.6,25.1,34.6,23.8,56.4
		c-1.4,23-13.8,44.7-33.3,58C214.6,241,190.8,248.9,165.8,249.6z"/>
	<path fill="#E8501D" d="M249.9,250.1c-3-3.1-6.2-5.1-9.9-5.1c-1.6,0-3.4,0.4-5.2,1.3c-5.5,2.7-6.6,7.8-6.6,13.6
		c6.7,21.4,17.4,40.3,35.1,54.6c1.3,1,2.7,1.4,4.2,1.4c2.2,0,4.4-0.9,6.5-2c3.8-2.2,5.3-5.7,4.2-9.6
		C272.2,284.5,264.7,265.4,249.9,250.1z M272.9,312.1c-2,1.2-3.9,1.8-5.5,1.8c-1.1,0-2-0.3-2.8-1c-15.9-12.8-27.1-30.3-34.4-53.3
		c0.1-6.4,1.6-9.6,5.5-11.4c1.5-0.7,2.9-1.1,4.3-1.1c2.8,0,5.5,1.5,8.4,4.5c14.9,15.4,22.1,34.8,27.7,53.4
		C277,307.9,275.9,310.4,272.9,312.1z"/>
	<path fill="#E8501D" d="M195.6,72.2c0.8,0.2,1.6,0.3,2.4,0.3c4.9,0,7.5-4.4,9.6-8.4c7.6-13.8,9.5-29,10.7-45
		c-0.3-7.4-0.4-17-9.6-18.9C208,0.1,207.3,0,206.6,0c-7.2,0-10.9,8-13,14.2c-5.1,14.5-6.8,29.9-7.1,45.3
		C186.3,65.5,189.4,70.6,195.6,72.2z M195.5,14.9c1.9-5.5,5.2-12.8,11-12.8c0.6,0,1.1,0.1,1.7,0.2c6.7,1.4,7.5,7.6,7.9,16.2l0,0.6
		c-1.1,14.8-2.9,30.4-10.4,44c-2.3,4.1-4.3,7.3-7.8,7.3c-0.6,0-1.2-0.1-1.9-0.3c-4.9-1.3-7.7-5.1-7.6-10.6
		C188.8,41.9,191.1,27.7,195.5,14.9z"/>
	<polygon fill="#E8501D" points="38.4,145.8 38.4,145.8 38.4,145.8 	"/>
	<path fill="#E8501D" d="M0.7,156.7c0.6-1.4,2.5-2.8,5-3.9c10.8-4.5,21.7-7.1,32.6-7.1h0l0,2.1c-10.1,0-20.8,2.3-31.8,6.9
		c-2.7,1.1-4.4,2.7-4.5,4.4c-0.1,1.9,1.7,4.1,4.8,5.8c8.5,4.7,18.4,7.1,30.3,7.4c0.5,0,1,0,1.4,0c8.4,0,16.9-1.9,26-5.9
		c3.7-1.6,6.8-3.2,6.9-6.5c0-3-2.5-4.8-6.7-6.6c-8.5-3.7-17.4-5.6-26.4-5.6v-2.1c9.1,0,18.2,1.8,27.3,5.8c3.7,1.6,8,3.8,8,8.6
		c-0.1,4.7-4.4,6.7-8.1,8.3c-8.6,3.7-17.4,6-26.8,6c-0.5,0-1,0-1.5,0c-11-0.2-21.6-2.2-31.3-7.6c-4.2-2.3-6.2-5.3-5.8-8.1
		C0,158.7,0.1,158.1,0.7,156.7z"/>
	<path fill="#E8501D" d="M332.4,230c-12.2-8.8-24.6-17.3-38-24.4c-3.1-1.6-6.3-3-10.2-3c-0.8,0-1.6,0-2.4,0.2
		c-0.7-0.2-1.5-0.3-2.2-0.3c-3.5,0-6.3,2.2-7.7,6.4c-1.7,5.2-0.7,9.6,4.2,12.7c14.8,9.6,29.7,19.2,45.8,26.5
		c2.8,1.3,5.9,2.5,8.7,2.5c2.7,0,5.2-1.1,7.3-4.5C342.2,239.1,338,234.1,332.4,230z M336.2,245.1c-1.4,2.4-3.1,3.5-5.5,3.5
		c-2.4,0-5.2-1.2-7.9-2.4c-16.2-7.3-31.1-17-45.5-26.3c-3.8-2.5-4.9-5.7-3.3-10.3c0.7-2.2,2.3-4.9,5.7-4.9c0.5,0,1.1,0.1,1.7,0.2
		c0.2,0,0.3,0.1,0.5,0.1c0.1,0,0.2,0,0.3,0c0.7-0.1,1.4-0.1,2.1-0.1c3.6,0,6.6,1.3,9.3,2.7c13.9,7.3,26.9,16.4,37.7,24.2
		C337.6,236.4,339.1,240.3,336.2,245.1z"/>
	<path fill="#E8501D" d="M187.1,265.9c-0.3,0-0.6,0-0.9,0.1c-4.4,0.5-6,4.3-7,7.9c-2.9,11.3-3.8,22.8-4.4,34.4
		c-0.4,7.6,0.8,14.9,3.1,22.1c1.1,3.6,2.7,7.4,7.1,7.9c0.4,0,0.7,0.1,1.1,0.1c4.1,0,7.1-2.9,8.6-6.4c8.8-19.9,8.1-39.9-0.1-59.7
		C193.4,269,191,265.9,187.1,265.9z M192.8,331c-0.7,1.6-2.7,5.2-6.7,5.2c-0.3,0-0.6,0-0.8,0c-2.8-0.3-4.1-2.7-5.3-6.4
		c-2.4-7.6-3.4-14.6-3-21.3c0.6-12.8,1.6-23.5,4.3-33.9c1.1-4.2,2.6-6.1,5.2-6.4c0.2,0,0.5,0,0.7,0c3,0,4.7,2.7,5.6,4.9
		C201,293,201,312.5,192.8,331z"/>
	<path fill="#E8501D" d="M119.9,75.2c0.8,0,1.6-0.2,2.6-0.6c4.7-2,4.7-6.3,4.6-10.7c-2.4-21.8-12.2-40-27.3-55.4
		c-1.9-1.9-3.5-2.8-4.8-2.8c-2.3,0-3.8,2.5-4.8,6.8c-5.3,24.1,6.8,41.2,22.1,57.2C114.5,72.1,116.6,75.2,119.9,75.2z M92.2,13
		c0.8-3.8,2-5.1,2.7-5.1c0.4,0,1.4,0.2,3.3,2.2c15.5,15.8,24.5,34,26.7,54.1c0.1,4.5-0.1,7.3-3.3,8.6c-0.6,0.3-1.2,0.4-1.8,0.4
		c-1.7,0-2.9-1.3-4.8-3.5c-0.4-0.5-0.8-0.9-1.3-1.4C97.4,51.1,87.4,35.1,92.2,13z"/>
	<path fill="#E8501D" d="M28.1,80.6c13.2,18.3,33,26.5,53.4,33c1.1,0.3,2,0.5,2.9,0.5c4.8,0,7.2-4.5,5.8-10.6
		c-1.5-6.9-7.2-10.1-12.4-13.7c-15.2-10.5-31.6-18.4-49-23.8c-0.1,0-0.2,0-0.3,0c-4,0-5.7,2-4.6,5.6C25,74.6,26.2,78,28.1,80.6z
		 M26,68.7c0.3-0.4,1.3-0.7,2.6-0.7c17.1,5.3,33.3,13.2,48.1,23.5c0.5,0.4,1,0.7,1.6,1.1c4.5,3.1,8.8,6,10,11.4
		c0.6,2.9,0.3,5.3-0.8,6.8c-0.7,0.9-1.7,1.3-3,1.3c-0.7,0-1.5-0.1-2.3-0.4c-22.6-7.2-40.2-15.4-52.4-32.2c-1.9-2.6-3-5.9-3.8-8.5
		C25.7,69.9,25.7,69.1,26,68.7z"/>
	<path fill="#E8501D" d="M136.8,257.2c-1.4-0.7-2.8-1.1-4.2-1.1c-3.2,0-6.2,1.8-8.2,4c-13.3,14.7-23.8,31-24.4,51.6
		c-0.2,6.3,1.6,9.5,5,9.5c2,0,4.5-1.1,7.6-3.2c17.7-12.2,22.3-31.9,27.8-48.1C140.5,263.4,140.8,259.3,136.8,257.2z M138.4,268.6
		l0,1.1c-0.6,1.8-1.2,3.7-1.9,5.6c-4.7,14.4-10,30.7-25,41.1c-3.4,2.3-5.4,2.8-6.5,2.8c-0.9,0-1.3-0.3-1.5-0.6
		c-0.6-0.6-1.5-2.3-1.4-6.8c0.5-17.2,7.8-32.7,23.8-50.3c1.9-2,4.3-3.3,6.6-3.3c1.1,0,2.2,0.3,3.2,0.8
		C138.2,260.3,138.4,262.4,138.4,268.6z"/>
	<path fill="#E8501D" d="M267.6,103.5c1.2,0,2.5-0.1,3.7-0.1c0.8,0.1,1.5,0.1,2.3,0.1c3.6,0,7.3-1.1,10.7-3.9
		c7.5-6.1,15.4-11.9,23.1-17.8c5.9-4.5,10.3-10.3,4.6-17c-2.4-2.8-5.1-4-8-4c-3.4,0-6.9,1.6-10.1,4c-10,7.3-19.9,14.7-29.6,22.3
		c-3.5,2.7-7.5,6-5.9,11.2C259.9,102.9,263.5,103.5,267.6,103.5z M265.6,88.7c9.7-7.6,19.5-14.8,29.6-22.2c3.2-2.3,6.3-3.6,8.9-3.6
		c2.5,0,4.6,1.1,6.4,3.2c1.6,1.9,2.3,3.7,2.1,5.5c-0.3,2.6-2.4,5.4-6.4,8.5c-2.2,1.7-4.4,3.3-6.5,4.9c-5.5,4.2-11.2,8.5-16.7,12.9
		c-2.8,2.3-6,3.4-9.4,3.4c-0.7,0-1.3,0-2-0.1c-0.1,0-0.2,0-0.3,0h0c-0.6,0-1.2,0-1.8,0c-0.7,0-1.3,0-2,0c-4.5,0-6.3-0.9-7.2-3.7
		C259.2,94,261.7,91.8,265.6,88.7z"/>
	<polygon fill="#E8501D" points="78.8,218.6 78.8,218.6 78.8,218.6 	"/>
	<path fill="#E8501D" d="M79.3,218.6c-0.1,0-0.3,0-0.4,0v2.1c0.1,0,0.2,0,0.4,0c1.8,0.1,4.2,0.4,5.1,1.7c1.3,1.9-0.2,5.9-0.7,7.3
		c-1.4,3.8-7.8,9.8-16.2,15.1c-8.4,5.3-16.8,8.7-21.3,8.7c-0.1,0-0.1,0-0.2,0c-3.2-0.2-5.1-0.9-5.8-1.9c-0.8-1.2-0.2-3.5,0.5-5.2
		c4-10.3,26.9-25.7,38.3-25.7l0-2.1h0c-12.4,0-36,15.9-40.3,27c-2.8,7.4,0.8,9.6,7.2,10c0.1,0,0.2,0,0.3,0
		c10.7,0,36.1-15.8,39.5-25.2C87.5,224.8,88.5,218.9,79.3,218.6z"/>
	<path fill="#E8501D" d="M359.3,154.7c0.6-1.9,0.6-4.1,0.1-6.5c-1.1-5.4-5.4-8.1-10-8.1c-0.7,0-1.3,0.1-2,0.2
		c-17.3,2.7-35.3,2.4-51.7,9.9c-5.1,2.3-12.4,3.5-11.2,10.4c1.2,6.6,7.8,9.7,14.5,10.5c1,0.1,1.9,0.2,2.9,0.2c1.7,0,3.3-0.1,5-0.1
		c15.7-0.1,30.2-5.1,44.9-9.8c3.1-1,5.3-2.6,6.5-4.7L359.3,154.7z M351.2,159.4c-1.1,0.4-2.3,0.7-3.4,1.1
		c-13.2,4.2-26.8,8.5-40.9,8.6c-0.9,0-1.7,0-2.6,0.1c-0.8,0-1.6,0.1-2.4,0.1c-1,0-1.9,0-2.7-0.1c-4.3-0.5-11.6-2.4-12.7-8.8
		c-0.6-3.6,1.6-4.9,7-6.9c1-0.4,2-0.8,3-1.2c11.6-5.3,24.3-6.6,36.5-7.9c4.8-0.5,9.8-1,14.6-1.8c0.5-0.1,1.1-0.1,1.6-0.1
		c4.2,0,7.2,2.4,8,6.4C358.6,154.2,356.5,157.8,351.2,159.4z"/>
</g>
</svg>
