<svg version="1.1" xmlns="http://www.w3.org/2000/svg" xmlns:xlink="http://www.w3.org/1999/xlink" x="0px" y="0px" width="585.6px"
	 height="714.1px" viewBox="0 0 585.6 714.1" enable-background="new 0 0 585.6 714.1" xml:space="preserve">
<g id="portraitSVG">
	<polyline fill="none" stroke="#E84F1C" stroke-width="2" stroke-linejoin="bevel" stroke-miterlimit="10" points="354,226.4 
		349.7,232.1 341.5,230.6 332,232.1 326.7,224.8 317.2,228.5 301.6,210.1 304.6,222.6 290.9,210.3 291.8,219.3 277.3,208.8 
		277.4,217 262.3,206.3 261.7,215.1 249.5,208.2 251.6,216.4 242.3,212 244.4,219.3 235.6,218.2 230.9,250.7 247.7,247.8 
		260.5,237.2 279.3,232 290.5,232 298.6,235.9 307.9,246.1 304.4,250.7 298.3,244.9 286.8,238.8 269.3,240.7 258.6,248.6 
		267.3,253.9 277.1,253.9 295.9,249.5 297.8,246.8 298.2,249.9 300.5,249.1 301.3,250.5 	"/>
	<polyline fill="none" stroke="#E84F1C" stroke-width="2" stroke-linejoin="bevel" stroke-miterlimit="10" points="270.9,240.5 
		269,244.8 270,248.4 272.6,251 277.7,253 282.3,252.7 286,250.4 287.7,246.4 286.7,242.6 284,239.1 278.8,239.7 276.2,240 
		274.5,243 275,246.1 277.6,247.8 280.8,247.1 282,244.9 281.2,242 277.8,240.2 273.4,240.3 	"/>
	<polyline fill="none" stroke="#E84F1C" stroke-width="2" stroke-linejoin="bevel" stroke-miterlimit="10" points="354.5,253 
		356.6,239.1 369.7,226.3 383.3,216.5 379.8,225.2 394.9,218.9 393.8,226.1 408,221.2 406,226.3 414.4,225.4 411.2,230.1 
		421.1,229.2 417.6,235.3 421.2,236.6 421.5,252.2 410.9,250.8 407.4,243.8 395.9,239.1 384.5,237.5 372,239.1 362,246.1 
		362.9,249.9 364.3,253 365.9,248.6 367.3,247.4 370.4,244.8 372.1,244.3 373.8,243.7 380.5,241.5 390.4,241.5 398.9,243.8 
		404.9,247.6 407.8,253.9 399.8,256.9 394.3,256.9 382.4,254.5 375.4,253 368.1,253 368.6,249.3 370.5,246.1 375.5,244.6 
		374.9,247.2 375.6,249.3 376.1,250.8 378.1,253 384.3,253.9 388.9,253 391.9,250.5 392.2,247.5 391.8,244.1 388.6,242.2 
		384.4,242.7 382.7,242.1 380.4,244.9 380.2,248.2 383,250.1 385.9,247.9 386.6,246.1 385.7,243.8 	"/>
	<path fill="none" stroke="#E84F1C" stroke-width="2" stroke-linejoin="bevel" stroke-miterlimit="10" d="M378.6,271.6l-12.5-6.9
		L354.5,253l1.9,12.8l15.8,16.3l23.6,6.9l18.7-10.6l8.7-12.3l-0.1-8l-1.6-5.9l-0.1-6.2l3-16l1.5-13.6l1.3-5.5l-3.3-6.9l1.5-10
		l-3.2-18.4l-6.2-11.2h3.9l-2.3-8.9l-8.3-17.8l-9.2-18.1l-11.3-5.2l-9.7-14.6l-17.9-6.3l-9.6-7.2h-8.3l-3.1,3.2l-2.9-3.2l-20.5-9.2
		l-9.7,4l-4.1-4L288.3,76l-22.1,12.3l-2.9,2.6l-11.2,1.7l-9.1,3.2l-25.3,28.1l2.1,2.6l-12.4,13.2l3.8,2.6l-16.8,53l1.8,18.9
		l-0.9,27.8l4.1,6.3l4.6-0.3l-0.7,8l3.3,6.3l1.6,26.7l10.1,34.1l2.7,23.2l10.4,22.7l6.2,43.9l1.2,37.6l-4.8-29.5
		c0,0-29.5,18.4-30.9,18.9s6,15.2,6,15.2l39,32.7l87.3,23.5l46.8-11.5l13.6-25.2l-12.4-38.4l0.5-20.9l3.5-4.7"/>
	<polyline fill="none" stroke="#E84F1C" stroke-width="2" stroke-linejoin="bevel" stroke-miterlimit="10" points="380.1,452.5 
		383.2,436.2 383.1,430.2 390.8,441.3 399.1,443.9 407,470.6 405.2,494.1 389.2,519 338.8,535.1 280.2,515.6 208.1,488.1 
		182.1,444.8 198.5,435 208.4,423.8 226.9,425.3 	"/>
	<polyline fill="none" stroke="#E84F1C" stroke-width="2" stroke-linejoin="bevel" stroke-miterlimit="10" points="225.7,358.2 
		217,392.9 222.3,424.9 223.1,399.5 228.8,380.7 231.2,370.2 233.8,421 	"/>
	<polyline fill="none" stroke="#E84F1C" stroke-width="2" stroke-linejoin="bevel" stroke-miterlimit="10" points="199.3,248.4 
		195.4,255 193.8,274.9 197.3,307.1 203.3,318.2 205.4,331.3 210.1,334.6 219.1,332.3 	"/>
	<polyline fill="none" stroke="#E84F1C" stroke-width="2" stroke-linejoin="bevel" stroke-miterlimit="10" points="206.6,265.4 
		202.6,265.4 203,287.4 201.5,297.3 207.3,308.1 209.2,317.7 	"/>
	<polyline fill="none" stroke="#E84F1C" stroke-width="2" stroke-linejoin="bevel" stroke-miterlimit="10" points="320.7,288.8 
		312.4,299.7 312.6,311.4 321.2,317.7 334.4,314.9 346.7,315.7 355.6,314.6 362.5,317.7 370.7,311.4 372.3,301.1 367.8,293.7 
		365.7,286.2 361,280.5 356.1,264 	"/>
	<polyline fill="none" stroke="#E84F1C" stroke-width="2" stroke-linejoin="bevel" stroke-miterlimit="10" points="327.4,295.7 
		332.9,297.1 347.4,304.6 347.5,314.3 352,305 359,300 362.5,298.3 	"/>
	<polyline fill="none" stroke="#E84F1C" stroke-width="2" stroke-linejoin="bevel" stroke-miterlimit="10" points="340.9,315.3 
		342.5,308 337.6,305 336.3,304.5 331.6,302.8 322.2,306.6 324.2,309.1 330,311.2 336.5,307.1 	"/>
	<polyline fill="none" stroke="#E84F1C" stroke-width="2" stroke-linejoin="bevel" stroke-miterlimit="10" points="354.1,314.3 
		357.2,307.4 361.4,305 361.5,309.1 359.3,312 357.8,313.2 	"/>
	<polyline fill="none" stroke="#E84F1C" stroke-width="2" stroke-linejoin="bevel" stroke-miterlimit="10" points="424.7,226.7 
		417.4,207.9 416.9,181.8 414.5,173.5 397.2,137.4 397.1,129.9 391.7,132.2 362.3,110.7 357.9,102.1 351.9,105.6 350.4,100.1 
		344.4,103 341.5,99 334.7,102.1 326.7,90.9 324,100.1 316.8,95 314.8,98.7 301.3,97.5 294.1,97.8 292.8,101.3 285.1,98.1 
		285.1,102.1 256.8,109.6 259.7,112.4 237.6,127.1 236.2,130.8 213.3,164.3 216.3,168.1 210.1,176.7 216.4,177.2 211.8,191.6 
		218.4,192.7 210.7,210.2 215.7,235.6 213.4,286.2 222.9,311.4 223.1,321.8 234.6,349.1 239.5,388.3 249.1,370.7 250.9,406.3 
		258.7,392.5 261.3,410.1 273.6,396.3 278.1,431.1 297.4,400.9 294.2,436.5 310.5,404.7 311.4,436.5 326.6,409.3 328.3,436.5 
		334.4,423.8 341.3,438 347.1,423.8 352.4,438 357.1,402.8 363.7,434.2 370.5,400.9 374.4,426.7 382.5,392.5 389.1,417.7 
		396.7,392.5 400.7,403.2 401.4,374.9 405.6,390.6 405.2,363.4 411.3,373.8 410.2,358.2 414.1,360.4 413.6,353.5 417,349.1 
		418.7,337.8 418.8,302.8 423.3,267.9 	"/>
	<polyline fill="none" stroke="#E84F1C" stroke-width="2" stroke-linejoin="bevel" stroke-miterlimit="10" points="311.7,308 
		308.8,311.2 305.8,314.3 314,312.4 303.6,316.8 284.9,346.7 287.7,366.7 294.6,363.4 293.2,379.2 285.7,387.3 283.5,371.6 
		279.5,385.9 283.6,408 293.4,392.5 	"/>
	<polyline fill="none" stroke="#E84F1C" stroke-width="2" stroke-linejoin="bevel" stroke-miterlimit="10" points="330.4,383.7 
		333.6,378.2 342.2,404.5 349.9,376.9 352,381.6 	"/>
	<polyline fill="none" stroke="#E84F1C" stroke-width="2" stroke-linejoin="bevel" stroke-miterlimit="10" points="339,376.9 
		342.6,382.6 345.2,376.9 	"/>
	<polyline fill="none" stroke="#E84F1C" stroke-width="2" stroke-linejoin="bevel" stroke-miterlimit="10" points="286.1,355.1 
		290,346.1 292.7,353 301.3,334.6 301.5,346.3 317.5,328.3 314.5,342.8 332.6,322.8 329.6,338.9 342.7,323.6 339.4,338.9 
		345.7,340.5 351.2,338.9 349.7,320.7 359.4,339.7 358,323 369.5,342.4 369.3,328.5 377.5,345 377.3,334.6 387.3,356.1 389.7,348.5 
		393.2,356.1 390,368.7 385,363.2 387.1,376.9 391.6,379.8 394.7,369.8 396.5,379.8 390.5,396.5 387,385.1 	"/>
	<polyline fill="none" stroke="#E84F1C" stroke-width="2" stroke-linejoin="bevel" stroke-miterlimit="10" points="301.5,346.3 
		296.9,358 305.7,350.5 331.1,343 344.6,347.3 356.1,344.1 376.3,352.7 380.3,353 373.3,358.6 354.8,354.7 344.8,356.2 333.1,354.5 
		307,359.9 299,358.6 309.2,365.9 323.3,371.4 358.8,369.4 371.3,363.1 	"/>
	<polyline fill="none" stroke="#E84F1C" stroke-width="2" stroke-linejoin="bevel" stroke-miterlimit="10" points="214.6,230.1 
		237.8,185.7 221,200.5 235,176.7 223.4,185.2 233.9,169 225.7,175.4 	"/>
	<polyline fill="none" stroke="#E84F1C" stroke-width="2" stroke-linejoin="bevel" stroke-miterlimit="10" points="418,209.6 
		398,183 410.5,192.7 400.3,169 410.3,181 400.5,160.3 406,165.8 	"/>
	<polygon fill="none" stroke="#E84F1C" stroke-width="2" stroke-linejoin="bevel" stroke-miterlimit="10" points="182.1,444.8 
		86.3,491.1 86.3,525.5 	"/>
	<polyline fill="none" stroke="#E84F1C" stroke-width="2" stroke-linejoin="bevel" stroke-miterlimit="10" points="208.1,488.1 
		86.3,525.5 187.7,576.4 221,554.5 280.2,515.6 268.5,585.9 324.7,620.7 344.8,533.2 389.2,519 416.7,596.3 428.3,538.2 443,571 
		477.4,485.2 407,470.6 	"/>
	
		<line fill="none" stroke="#E84F1C" stroke-width="2" stroke-linejoin="bevel" stroke-miterlimit="10" x1="399.1" y1="443.9" x2="477.4" y2="485.2"/>
	
		<line fill="none" stroke="#E84F1C" stroke-width="2" stroke-linejoin="bevel" stroke-miterlimit="10" x1="405.2" y1="492.9" x2="428.3" y2="538.2"/>
	
		<line fill="none" stroke="#E84F1C" stroke-width="2" stroke-linejoin="bevel" stroke-miterlimit="10" x1="268.5" y1="585.9" x2="187.7" y2="577"/>
	
		<line fill="none" stroke="#E84F1C" stroke-width="2" stroke-linejoin="bevel" stroke-miterlimit="10" x1="324.7" y1="620.7" x2="416.7" y2="596.3"/>
	<polyline fill="none" stroke="#E84F1C" stroke-width="2" stroke-linejoin="bevel" stroke-miterlimit="10" points="244.5,392.5 
		244.9,415.8 256.3,408 256.5,423.8 269.5,412.9 269.8,430.2 257.6,432.4 245.1,423.8 245.3,438 254.5,441.1 266,438 266.1,448.5 
		254.7,448.5 245.4,444.8 242.5,454.8 261.7,454.8 238.4,466.9 225.6,434.7 223.8,460 213.9,447.4 217.1,438 	"/>
	<polyline fill="none" stroke="#E84F1C" stroke-width="2" stroke-linejoin="bevel" stroke-miterlimit="10" points="213.4,286.2 
		242.6,277.8 222.9,311.4 278.2,292.4 234.6,349.1 284.9,346.7 	"/>
	<polyline fill="none" stroke="#E84F1C" stroke-width="2" stroke-linejoin="bevel" stroke-miterlimit="10" points="418.7,334.6 
		393.7,345.9 373.9,313.4 370.7,311.4 419.2,299.5 395.8,289.1 	"/>
	<polyline fill="none" stroke="#E84F1C" stroke-width="2" stroke-linejoin="bevel" stroke-miterlimit="10" points="259.7,112.4 
		288.7,121 213.3,164.3 276.9,147.4 277.7,191.8 233.9,169 	"/>
	<polyline fill="none" stroke="#E84F1C" stroke-width="2" stroke-linejoin="bevel" stroke-miterlimit="10" points="235.6,218.2 
		247.7,247.8 251.6,216.4 260.5,237.2 277.4,217 279.3,232 291.8,219.3 290.5,232 304.6,222.6 299.9,235.6 317.2,228.5 307.9,246.1 
		321.9,244.8 319.9,237.8 321.9,244.8 319.1,253.9 293.1,274.2 326.7,256.9 316.9,273.8 278.2,292.4 242.6,277.8 240.6,273.2 
		237.7,266.3 230.9,250.7 	"/>
	<polyline fill="none" stroke="#E84F1C" stroke-width="2" stroke-linejoin="bevel" stroke-miterlimit="10" points="356.6,239.1 
		362,246.1 369.7,226.3 372,239.1 379.8,225.2 385.6,237.6 393.8,226.1 399,239.1 411.2,230.1 407.4,243.8 421.2,236.6 	"/>
	
	<line fill="none" stroke="#E84F1C" stroke-width="2" stroke-linejoin="bevel" stroke-miterlimit="10" x1="319.9" y1="237.8" x2="332" y2="232.1"/>
</g>
</svg>